<svg xmlns="http://www.w3.org/2000/svg" xmlns:xlink="http://www.w3.org/1999/xlink" width="130" zoomAndPan="magnify" viewBox="0 0 97.5 52.499999" height="70" preserveAspectRatio="xMidYMid meet" version="1.0"><defs><clipPath id="5b77643fab"><path d="M 53 32 L 76 32 L 76 45.761719 L 53 45.761719 Z M 53 32 " clip-rule="nonzero"/></clipPath><clipPath id="b6272cf7ed"><path d="M 74 29 L 88.148438 29 L 88.148438 38 L 74 38 Z M 74 29 " clip-rule="nonzero"/></clipPath><clipPath id="bf9b967d3e"><path d="M 74 36 L 88.148438 36 L 88.148438 45 L 74 45 Z M 74 36 " clip-rule="nonzero"/></clipPath><clipPath id="c503ce7f25"><path d="M 23 27 L 35 27 L 35 45.761719 L 23 45.761719 Z M 23 27 " clip-rule="nonzero"/></clipPath><clipPath id="9c995a083a"><path d="M 18 6.183594 L 27 6.183594 L 27 14 L 18 14 Z M 18 6.183594 " clip-rule="nonzero"/></clipPath></defs><g clip-path="url(#5b77643fab)"><path fill="#aa6644" d="M 63.613281 33.234375 C 62.671875 34.023438 61.457031 35.007812 59.273438 34.136719 C 56.375 32.984375 55.570312 32.566406 55.3125 32.957031 C 55.054688 33.347656 56.84375 35.773438 59.902344 36.046875 C 60.664062 36.117188 61.324219 36.105469 61.902344 36.027344 C 61.835938 36.191406 61.773438 36.355469 61.714844 36.53125 C 61.640625 36.738281 61.683594 36.957031 61.800781 37.125 L 60.878906 37.84375 C 60.832031 37.882812 60.789062 37.921875 60.75 37.964844 L 58.453125 37.183594 C 58.109375 37.066406 57.726562 37.140625 57.453125 37.378906 L 53.902344 40.453125 C 53.804688 40.539062 53.722656 40.640625 53.664062 40.757812 L 53.21875 41.636719 C 52.964844 42.128906 53.167969 42.734375 53.664062 42.980469 C 53.8125 43.054688 53.96875 43.089844 54.121094 43.089844 C 54.492188 43.089844 54.847656 42.886719 55.027344 42.539062 L 55.386719 41.832031 L 58.347656 39.265625 L 59.945312 39.8125 L 57.953125 43.265625 C 57.757812 43.609375 57.777344 44.03125 58.011719 44.351562 L 58.710938 45.300781 C 58.90625 45.574219 59.214844 45.714844 59.53125 45.714844 C 59.738281 45.714844 59.945312 45.65625 60.125 45.527344 C 60.578125 45.203125 60.679688 44.574219 60.351562 44.128906 L 60.035156 43.699219 L 61.960938 40.359375 L 62.777344 40.027344 L 66.164062 39.246094 C 66.308594 39.210938 66.445312 39.144531 66.558594 39.054688 C 67.039062 39.148438 67.574219 39.179688 68.148438 39.101562 C 70.460938 38.796875 70.492188 40.652344 75.089844 40.445312 C 75.160156 40.445312 75.222656 40.4375 75.289062 40.433594 C 74.339844 38.828125 73.917969 37.316406 73.796875 35.980469 C 71.117188 35.472656 64.917969 33.625 63.613281 33.234375 Z M 63.613281 33.234375 " fill-opacity="1" fill-rule="nonzero"/></g><path fill="#aa6644" d="M 73.761719 34.953125 C 73.78125 33.796875 74.011719 32.8125 74.261719 32.074219 C 72.882812 32.175781 71.570312 32.121094 70.363281 32.070312 C 68.347656 31.984375 66.480469 31.90625 64.929688 32.582031 C 67.097656 33.21875 71.523438 34.5 73.761719 34.953125 Z M 73.761719 34.953125 " fill-opacity="1" fill-rule="nonzero"/><g clip-path="url(#b6272cf7ed)"><path fill="#aa6644" d="M 74.746094 35.054688 C 75.886719 35.390625 79.921875 36.535156 82.289062 36.683594 C 82.847656 36.160156 83.402344 35.609375 83.464844 35.566406 C 83.578125 35.492188 84.527344 35.917969 84.859375 36.152344 C 85.191406 36.390625 86.710938 36.632812 86.710938 36.632812 C 86.710938 36.632812 86.800781 36.566406 86.90625 36.484375 C 87.003906 36.628906 87.078125 36.773438 87.105469 36.921875 C 87.128906 37.039062 87.234375 37.125 87.355469 37.125 C 87.371094 37.125 87.386719 37.121094 87.402344 37.117188 C 87.539062 37.09375 87.628906 36.960938 87.605469 36.824219 C 87.390625 35.738281 85.796875 34.921875 85.03125 34.589844 C 85.265625 34.492188 86.558594 34.851562 86.871094 34.984375 C 87.191406 35.121094 88.328125 34.703125 88.328125 34.703125 L 88.523438 34.4375 C 88.617188 34.441406 88.714844 34.394531 88.765625 34.304688 C 88.839844 34.175781 88.796875 34.011719 88.667969 33.9375 C 88.609375 33.90625 88.546875 33.898438 88.488281 33.90625 L 86.140625 32.503906 L 85.796875 31.398438 C 85.796875 31.398438 85.121094 31.039062 84.136719 30.640625 C 84.054688 30.609375 83.964844 30.585938 83.867188 30.566406 C 83.5625 29.761719 82.742188 29.457031 82.261719 29.328125 C 82.15625 29.300781 82.0625 29.3125 81.976562 29.347656 C 81.621094 29.5 81.398438 30.089844 81.28125 30.4375 C 81.183594 30.726562 81.484375 31.320312 81.804688 31.507812 C 81.550781 31.71875 81.183594 31.351562 81.011719 30.964844 C 80.703125 31.050781 80.503906 31.117188 80.503906 31.117188 L 78.808594 30.710938 L 78.667969 32.59375 L 77.859375 31.171875 L 75.871094 31.882812 C 75.703125 31.910156 75.535156 31.9375 75.363281 31.960938 C 75.078125 32.640625 74.75 33.710938 74.746094 35.054688 Z M 84.828125 32.425781 C 84.910156 32.28125 85.097656 32.234375 85.242188 32.316406 C 85.390625 32.398438 85.4375 32.582031 85.355469 32.726562 C 85.269531 32.871094 85.082031 32.921875 84.9375 32.835938 C 84.792969 32.753906 84.742188 32.570312 84.828125 32.425781 Z M 84.828125 32.425781 " fill-opacity="1" fill-rule="nonzero"/></g><g clip-path="url(#bf9b967d3e)"><path fill="#aa6644" d="M 74.8125 36.117188 C 74.964844 37.367188 75.417969 38.78125 76.390625 40.296875 C 76.457031 40.285156 76.519531 40.273438 76.585938 40.261719 L 77.648438 41.746094 C 77.734375 41.867188 77.855469 41.964844 77.992188 42.023438 L 81.320312 43.496094 L 81.792969 44.375 C 81.945312 44.65625 82.238281 44.816406 82.539062 44.816406 C 82.667969 44.816406 82.800781 44.785156 82.925781 44.722656 C 83.335938 44.515625 83.5 44.019531 83.292969 43.609375 L 82.699219 42.421875 C 82.621094 42.261719 82.488281 42.128906 82.324219 42.046875 L 79.363281 40.578125 L 78.757812 39.457031 C 79.042969 39.296875 79.300781 39.125 79.53125 38.953125 L 80.605469 40.34375 C 80.746094 40.527344 80.957031 40.644531 81.191406 40.667969 L 85.644531 41.097656 L 87.035156 41.878906 C 87.164062 41.953125 87.308594 41.988281 87.449219 41.988281 C 87.710938 41.988281 87.964844 41.871094 88.132812 41.648438 C 88.382812 41.308594 88.339844 40.832031 88.027344 40.542969 L 86.734375 39.351562 C 86.613281 39.242188 86.460938 39.167969 86.300781 39.140625 L 82.1875 38.441406 L 81.660156 37.628906 C 79.355469 37.378906 76.1875 36.515625 74.8125 36.117188 Z M 74.8125 36.117188 " fill-opacity="1" fill-rule="nonzero"/></g><path fill="#aa6644" d="M 74.261719 35.210938 C 74.0625 35.261719 73.941406 35.460938 73.992188 35.65625 C 74.042969 35.851562 74.242188 35.96875 74.441406 35.921875 C 74.640625 35.871094 74.757812 35.671875 74.710938 35.476562 C 74.660156 35.28125 74.457031 35.164062 74.261719 35.210938 Z M 74.261719 35.210938 " fill-opacity="1" fill-rule="nonzero"/><g clip-path="url(#c503ce7f25)"><path fill="#aa6644" d="M 27.0625 35.90625 L 30.402344 44.429688 C 30.726562 45.253906 31.523438 45.761719 32.371094 45.761719 C 32.625 45.761719 32.882812 45.714844 33.132812 45.621094 C 34.21875 45.203125 34.757812 43.996094 34.339844 42.921875 L 30.851562 34.019531 C 30.75 33.765625 30.605469 33.539062 30.417969 33.34375 L 25.023438 27.671875 C 24.742188 29.597656 24.363281 31.257812 23.964844 32.648438 Z M 27.0625 35.90625 " fill-opacity="1" fill-rule="nonzero"/></g><path fill="#aa6644" d="M 24.941406 25.058594 C 24.976562 24.601562 24.996094 24.164062 25 23.746094 C 24.738281 23.667969 24.496094 23.527344 24.292969 23.332031 L 19.789062 18.992188 C 19.105469 18.328125 19.089844 17.238281 19.757812 16.558594 C 20.089844 16.226562 20.53125 16.039062 21.003906 16.039062 C 21.460938 16.039062 21.890625 16.214844 22.21875 16.527344 L 24.222656 18.460938 C 24.109375 18.082031 23.980469 17.6875 23.84375 17.277344 C 22.992188 14.835938 20.902344 14.058594 19.460938 14.414062 C 19.269531 14.460938 19.09375 14.539062 18.933594 14.640625 L 13.394531 17.484375 C 12.816406 17.78125 12.535156 18.445312 12.726562 19.0625 L 14.511719 24.777344 C 14.691406 25.351562 15.222656 25.71875 15.800781 25.71875 C 15.933594 25.71875 16.066406 25.699219 16.199219 25.660156 C 16.910156 25.441406 17.3125 24.695312 17.089844 23.992188 L 15.640625 19.339844 L 17.820312 18.222656 C 17.835938 18.289062 17.851562 18.355469 17.871094 18.421875 C 18.226562 20.207031 18.785156 22.582031 18.859375 24.886719 C 19.414062 25.019531 21.554688 25.441406 24.941406 25.058594 Z M 24.941406 25.058594 " fill-opacity="1" fill-rule="nonzero"/><path fill="#aa6644" d="M 21.945312 16.804688 C 21.414062 16.289062 20.558594 16.300781 20.035156 16.828125 C 19.515625 17.355469 19.527344 18.199219 20.0625 18.714844 L 24.5625 23.054688 C 24.820312 23.304688 25.160156 23.433594 25.507812 23.433594 C 25.703125 23.433594 25.902344 23.390625 26.089844 23.304688 L 31.800781 20.605469 C 32.472656 20.289062 32.757812 19.492188 32.4375 18.824219 C 32.113281 18.160156 31.308594 17.878906 30.636719 18.195312 L 25.773438 20.492188 Z M 21.945312 16.804688 " fill-opacity="1" fill-rule="nonzero"/><g clip-path="url(#9c995a083a)"><path fill="#aa6644" d="M 26.175781 9.941406 C 26.175781 10.4375 26.078125 10.917969 25.886719 11.378906 C 25.695312 11.839844 25.417969 12.246094 25.0625 12.597656 C 24.707031 12.949219 24.296875 13.21875 23.832031 13.410156 C 23.363281 13.601562 22.878906 13.695312 22.375 13.695312 C 21.875 13.695312 21.390625 13.601562 20.921875 13.410156 C 20.457031 13.21875 20.046875 12.949219 19.691406 12.597656 C 19.335938 12.246094 19.058594 11.839844 18.867188 11.378906 C 18.675781 10.917969 18.578125 10.4375 18.578125 9.941406 C 18.578125 9.441406 18.675781 8.964844 18.867188 8.503906 C 19.058594 8.042969 19.335938 7.636719 19.691406 7.285156 C 20.046875 6.933594 20.457031 6.660156 20.921875 6.472656 C 21.390625 6.28125 21.875 6.183594 22.375 6.183594 C 22.878906 6.183594 23.363281 6.28125 23.832031 6.472656 C 24.296875 6.660156 24.707031 6.933594 25.0625 7.285156 C 25.417969 7.636719 25.695312 8.042969 25.886719 8.503906 C 26.078125 8.964844 26.175781 9.441406 26.175781 9.941406 Z M 26.175781 9.941406 " fill-opacity="1" fill-rule="nonzero"/></g><path fill="#aa6644" d="M 22.230469 26.386719 C 20.589844 26.386719 19.445312 26.207031 18.847656 26.082031 C 18.828125 26.382812 18.804688 26.683594 18.765625 26.976562 C 18.65625 28.832031 19.070312 29.3125 20.023438 29.441406 C 19.539062 31.664062 18.953125 33.300781 18.523438 34.316406 L 11.5625 33.160156 C 10.414062 32.964844 9.324219 33.734375 9.132812 34.871094 C 8.9375 36.007812 9.714844 37.082031 10.863281 37.273438 L 19.386719 38.691406 C 19.503906 38.710938 19.621094 38.722656 19.738281 38.722656 C 20.472656 38.722656 21.164062 38.34375 21.546875 37.707031 C 21.644531 37.546875 23.871094 33.796875 24.761719 26.71875 C 24.765625 26.710938 24.765625 26.707031 24.769531 26.699219 C 24.886719 26.769531 25.007812 26.835938 25.128906 26.90625 C 32.574219 31.160156 41.792969 32.308594 48.351562 32.503906 C 49.164062 32.53125 49.953125 32.539062 50.71875 32.539062 C 55.710938 32.539062 59.613281 32.078125 61.015625 31.886719 C 61.015625 31.902344 61.019531 31.917969 61.023438 31.933594 C 61.089844 32.167969 61.246094 32.359375 61.460938 32.476562 L 62.15625 32.851562 C 62.195312 32.871094 62.25 32.890625 62.316406 32.890625 C 62.410156 32.890625 62.527344 32.855469 62.664062 32.738281 C 62.683594 32.722656 62.699219 32.703125 62.71875 32.6875 L 63.414062 33.054688 L 63.484375 33.089844 L 63.921875 32.28125 L 63.960938 32.207031 L 63.203125 31.804688 C 63.25 31.570312 63.222656 31.359375 63.039062 31.257812 L 62.34375 30.882812 C 62.128906 30.765625 61.882812 30.742188 61.644531 30.808594 C 61.410156 30.878906 61.214844 31.03125 61.097656 31.242188 C 61.074219 31.285156 61.054688 31.332031 61.039062 31.378906 C 59.550781 31.585938 54.558594 32.191406 48.355469 32.003906 C 41.808594 31.804688 32.589844 30.65625 25.210938 26.375 C 25.128906 26.328125 25.046875 26.28125 24.964844 26.230469 C 23.941406 26.34375 23.027344 26.386719 22.230469 26.386719 Z M 62.238281 32.703125 L 62.320312 32.558594 Z M 62.179688 31.175781 L 62.875 31.550781 C 62.882812 31.5625 62.886719 31.59375 62.886719 31.640625 L 62.847656 31.621094 L 62.371094 32.503906 L 62.402344 32.519531 C 62.363281 32.546875 62.332031 32.558594 62.316406 32.558594 L 61.625 32.183594 C 61.488281 32.109375 61.390625 31.988281 61.347656 31.839844 C 61.492188 31.820312 61.570312 31.804688 61.578125 31.804688 C 61.714844 31.78125 61.808594 31.652344 61.785156 31.515625 C 61.761719 31.382812 61.632812 31.289062 61.496094 31.3125 C 61.492188 31.3125 61.476562 31.3125 61.453125 31.316406 C 61.628906 31.105469 61.933594 31.042969 62.179688 31.175781 Z M 62.179688 31.175781 " fill-opacity="1" fill-rule="nonzero"/></svg>