<svg xmlns="http://www.w3.org/2000/svg" xmlns:xlink="http://www.w3.org/1999/xlink" width="150" zoomAndPan="magnify" viewBox="0 0 112.5 93.749997" height="125" preserveAspectRatio="xMidYMid meet" version="1.0"><defs><g/><clipPath id="92238bd3da"><path d="M 26 10 L 89.683594 10 L 89.683594 64.8125 L 26 64.8125 Z M 26 10 " clip-rule="nonzero"/></clipPath></defs><g clip-path="url(#92238bd3da)"><path fill="#aa6644" d="M 88.414062 49.183594 C 87.792969 49.71875 87.136719 50.21875 86.472656 50.699219 C 84.847656 51.828125 83.261719 53.066406 81.417969 53.859375 C 78.054688 55.261719 74.199219 55.203125 70.753906 54.125 C 70.460938 41.320312 56.917969 42.332031 52.140625 29.71875 C 52.117188 29.679688 52.097656 29.644531 52.085938 29.605469 C 52.582031 28.78125 52.902344 27.828125 53.015625 26.824219 C 53.59375 23.269531 53.496094 19.445312 52.003906 16.117188 C 51.015625 14.003906 49.496094 12 47.484375 10.777344 C 45 9.453125 41.976562 10.085938 39.449219 10.976562 C 37.597656 11.796875 36.234375 13.558594 34.167969 13.925781 C 33.449219 14.097656 32.738281 14.054688 32.027344 14.007812 C 31.261719 13.960938 30.496094 13.910156 29.703125 14.132812 C 27.269531 14.855469 26.484375 17.84375 27.371094 20.027344 C 28.003906 21.707031 29.117188 23.199219 30.367188 24.472656 C 32.832031 26.898438 36.539062 27.898438 40.089844 28.160156 C 39.511719 28.867188 38.976562 29.617188 38.515625 30.402344 C 36.683594 33.496094 35.988281 37.148438 36.160156 40.714844 C 36.085938 44.679688 36.621094 50.242188 34.722656 53.765625 C 33.46875 55.40625 31.132812 55.246094 29.34375 55.886719 C 26.675781 56.488281 25.738281 59.722656 27.988281 61.429688 C 29.511719 62.648438 31.53125 62.59375 33.386719 62.429688 C 37.179688 62.125 40.582031 60.066406 43.28125 57.484375 C 44.746094 59.671875 46.859375 61.425781 49.148438 62.695312 C 49.207031 62.722656 49.265625 62.734375 49.324219 62.734375 C 49.511719 62.734375 49.695312 62.613281 49.765625 62.445312 C 49.929688 62.042969 49.570312 61.855469 49.273438 61.664062 C 48.890625 61.398438 48.472656 61.078125 48.058594 60.746094 C 46.574219 59.566406 45.125 58.285156 44.140625 56.640625 C 46.347656 54.292969 48.027344 51.289062 48.347656 48.046875 C 48.664062 45.441406 46.953125 41.121094 43.714844 42.824219 C 42.09375 43.769531 41.40625 45.679688 41.042969 47.421875 C 40.390625 50.429688 40.976562 53.671875 42.558594 56.300781 C 39.308594 59.570312 34.550781 61.964844 29.871094 60.90625 C 28.503906 60.558594 27.390625 58.933594 28.613281 57.78125 C 29.601562 57.023438 30.933594 56.964844 32.101562 56.652344 C 35.664062 56.0625 36.753906 53.835938 37.234375 50.519531 C 38.054688 45.558594 37.074219 40.488281 37.960938 35.546875 C 38.351562 33.59375 39.09375 31.703125 40.21875 30.054688 C 40.457031 29.507812 41.445312 28.839844 41.289062 28.21875 C 41.957031 28.238281 42.617188 28.234375 43.25 28.210938 C 43.835938 30.199219 45.273438 32.328125 47.558594 32.359375 C 49.195312 32.296875 50.554688 31.539062 51.511719 30.40625 C 51.734375 31.164062 52.179688 31.90625 52.46875 32.597656 C 57.027344 42.789062 69.34375 42.699219 69.628906 53.738281 C 66.195312 52.503906 63 50.585938 59.4375 49.726562 C 57.863281 49.554688 56.167969 49.664062 54.792969 50.515625 C 53.152344 51.453125 51.492188 52.800781 51.265625 54.800781 C 50.917969 56.269531 51.328125 57.773438 51.8125 59.164062 C 52.917969 62.277344 55.875 64.699219 59.230469 64.804688 C 59.359375 64.8125 59.492188 64.816406 59.621094 64.816406 C 61.53125 64.816406 63.382812 64.121094 65.054688 63.234375 C 68.054688 61.710938 70.367188 58.816406 70.699219 55.414062 C 74.191406 56.414062 78.039062 56.386719 81.449219 55.082031 C 84.253906 53.878906 86.71875 51.960938 89.097656 50.074219 C 89.683594 49.632812 88.972656 48.730469 88.410156 49.183594 Z M 42.402344 47.699219 C 42.75 46.226562 43.285156 44.179688 44.992188 43.824219 C 46.410156 43.847656 46.800781 45.664062 46.929688 46.800781 C 47.089844 49.984375 45.582031 53.097656 43.449219 55.394531 C 42.332031 53.019531 41.886719 50.285156 42.402344 47.699219 Z M 51.960938 24.144531 C 51.746094 27.082031 51.289062 30.402344 47.816406 30.980469 C 44.601562 30.878906 44.226562 26.625 43.773438 24.179688 C 43.597656 23.511719 43.886719 22.152344 42.898438 22.152344 C 42.882812 22.152344 42.867188 22.152344 42.851562 22.152344 C 41.804688 22.355469 42.527344 24.023438 42.503906 24.765625 C 42.644531 25.707031 42.816406 26.644531 43.0625 27.5625 C 39.144531 27.398438 34.617188 26.773438 31.542969 24.144531 C 29.832031 22.460938 28.042969 20.285156 28.089844 17.765625 C 28.152344 16.574219 28.953125 15.347656 30.175781 15.125 C 30.816406 15.039062 31.46875 15.078125 32.117188 15.117188 C 33.058594 15.171875 34 15.226562 34.917969 14.914062 C 36.722656 14.460938 38.042969 13.089844 39.640625 12.234375 C 41.65625 11.410156 44.046875 10.949219 46.164062 11.644531 C 47.792969 12.285156 48.871094 13.714844 49.917969 15.0625 C 51.691406 17.722656 52.191406 21.003906 51.960938 24.144531 Z M 60.21875 63.375 C 57.417969 63.589844 54.699219 61.90625 53.527344 59.378906 C 52.824219 57.832031 52.339844 56.066406 52.886719 54.402344 C 53.28125 53.28125 54.265625 52.546875 55.210938 51.902344 C 56.121094 51.246094 57.234375 50.980469 58.347656 50.980469 C 58.707031 50.980469 59.066406 51.007812 59.417969 51.058594 C 62.953125 51.988281 66.160156 53.867188 69.605469 55.0625 C 69.207031 59.789062 64.660156 62.917969 60.21875 63.375 Z M 60.21875 63.375 " fill-opacity="1" fill-rule="nonzero"/></g><g fill="#aa6644" fill-opacity="1"><g transform="translate(15.628817, 80.952669)"><g><path d="M 0.921875 0 L 0.890625 -0.640625 L 1.859375 -0.890625 C 1.867188 -0.929688 1.875 -1.039062 1.875 -1.21875 C 1.882812 -1.40625 1.890625 -1.671875 1.890625 -2.015625 C 1.898438 -2.359375 1.90625 -2.785156 1.90625 -3.296875 L 1.921875 -6.890625 C 1.921875 -7.347656 1.914062 -7.734375 1.90625 -8.046875 C 1.90625 -8.367188 1.898438 -8.617188 1.890625 -8.796875 C 1.890625 -8.972656 1.882812 -9.078125 1.875 -9.109375 L 0.8125 -9.34375 L 0.875 -10 L 6.25 -10 C 6.414062 -10 6.582031 -10 6.75 -10 C 6.925781 -10 7.113281 -10.003906 7.3125 -10.015625 C 7.507812 -10.035156 7.722656 -10.050781 7.953125 -10.0625 L 8.3125 -7.8125 L 7.53125 -7.703125 L 6.953125 -9.125 C 6.878906 -9.144531 6.785156 -9.15625 6.671875 -9.15625 C 6.554688 -9.164062 6.4375 -9.171875 6.3125 -9.171875 L 4.421875 -9.171875 C 4.253906 -9.171875 4.066406 -9.164062 3.859375 -9.15625 C 3.648438 -9.15625 3.484375 -9.144531 3.359375 -9.125 C 3.359375 -9.082031 3.351562 -9 3.34375 -8.875 C 3.34375 -8.75 3.34375 -8.59375 3.34375 -8.40625 C 3.34375 -8.21875 3.34375 -8 3.34375 -7.75 C 3.34375 -7.507812 3.34375 -7.257812 3.34375 -7 L 3.359375 -3.28125 C 3.359375 -2.738281 3.363281 -2.300781 3.375 -1.96875 C 3.382812 -1.632812 3.390625 -1.378906 3.390625 -1.203125 C 3.398438 -1.035156 3.410156 -0.929688 3.421875 -0.890625 L 4.796875 -0.6875 L 4.765625 0 Z M 6.328125 -3.359375 L 6.109375 -4.578125 C 6.046875 -4.597656 5.941406 -4.613281 5.796875 -4.625 C 5.648438 -4.644531 5.484375 -4.65625 5.296875 -4.65625 L 3.859375 -4.65625 C 3.734375 -4.65625 3.601562 -4.648438 3.46875 -4.640625 C 3.332031 -4.628906 3.171875 -4.617188 2.984375 -4.609375 L 2.984375 -5.546875 C 3.117188 -5.535156 3.257812 -5.523438 3.40625 -5.515625 C 3.5625 -5.503906 3.710938 -5.5 3.859375 -5.5 L 5.296875 -5.5 C 5.523438 -5.5 5.703125 -5.503906 5.828125 -5.515625 C 5.960938 -5.523438 6.054688 -5.539062 6.109375 -5.5625 L 6.328125 -6.71875 L 7.0625 -6.71875 L 7.0625 -3.359375 Z M 6.328125 -3.359375 "/></g></g></g><g fill="#aa6644" fill-opacity="1"><g transform="translate(28.081143, 80.952669)"><g><path d="M 0.828125 0 L 0.796875 -0.640625 L 1.84375 -0.890625 C 1.863281 -0.941406 1.875 -1.066406 1.875 -1.265625 C 1.882812 -1.472656 1.890625 -1.753906 1.890625 -2.109375 C 1.898438 -2.460938 1.90625 -2.890625 1.90625 -3.390625 L 1.90625 -6.59375 C 1.90625 -7.101562 1.898438 -7.535156 1.890625 -7.890625 C 1.890625 -8.242188 1.882812 -8.523438 1.875 -8.734375 C 1.875 -8.953125 1.863281 -9.078125 1.84375 -9.109375 L 0.796875 -9.34375 L 0.828125 -10 L 4.46875 -10 L 4.5 -9.34375 L 3.453125 -9.109375 C 3.429688 -9.078125 3.410156 -8.96875 3.390625 -8.78125 C 3.378906 -8.59375 3.367188 -8.320312 3.359375 -7.96875 C 3.359375 -7.613281 3.359375 -7.15625 3.359375 -6.59375 L 3.359375 -3.390625 C 3.359375 -2.847656 3.359375 -2.398438 3.359375 -2.046875 C 3.367188 -1.691406 3.378906 -1.421875 3.390625 -1.234375 C 3.410156 -1.046875 3.429688 -0.929688 3.453125 -0.890625 L 4.5 -0.640625 L 4.46875 0 Z M 0.828125 0 "/></g></g></g><g fill="#aa6644" fill-opacity="1"><g transform="translate(37.196452, 80.952669)"><g><path d="M 8.828125 -10.0625 L 9.203125 -7.3125 L 8.453125 -7.21875 L 7.734375 -9.140625 C 7.640625 -9.160156 7.53125 -9.175781 7.40625 -9.1875 C 7.289062 -9.195312 7.1875 -9.203125 7.09375 -9.203125 L 6.484375 -9.203125 C 6.367188 -9.203125 6.210938 -9.203125 6.015625 -9.203125 C 5.828125 -9.203125 5.65625 -9.191406 5.5 -9.171875 C 5.5 -9.085938 5.492188 -8.875 5.484375 -8.53125 C 5.484375 -8.195312 5.484375 -7.804688 5.484375 -7.359375 C 5.484375 -6.921875 5.484375 -6.5 5.484375 -6.09375 L 5.484375 -3.796875 C 5.484375 -3.078125 5.488281 -2.453125 5.5 -1.921875 C 5.507812 -1.398438 5.515625 -1.054688 5.515625 -0.890625 L 6.96875 -0.6875 L 6.90625 0 L 2.578125 0 L 2.53125 -0.6875 L 3.96875 -0.890625 C 3.96875 -1.054688 3.972656 -1.398438 3.984375 -1.921875 C 3.992188 -2.453125 4 -3.078125 4 -3.796875 L 4 -6.09375 C 4 -6.5 4 -6.921875 4 -7.359375 C 4 -7.804688 4 -8.195312 4 -8.53125 C 4 -8.875 3.992188 -9.085938 3.984375 -9.171875 C 3.835938 -9.191406 3.664062 -9.203125 3.46875 -9.203125 C 3.28125 -9.203125 3.128906 -9.203125 3.015625 -9.203125 L 2.34375 -9.203125 C 2.257812 -9.203125 2.160156 -9.195312 2.046875 -9.1875 C 1.941406 -9.175781 1.835938 -9.160156 1.734375 -9.140625 L 1.03125 -7.203125 L 0.265625 -7.3125 L 0.640625 -10.0625 C 0.765625 -10.050781 0.898438 -10.039062 1.046875 -10.03125 C 1.191406 -10.03125 1.332031 -10.023438 1.46875 -10.015625 C 1.613281 -10.003906 1.753906 -10 1.890625 -10 C 2.023438 -10 2.160156 -10 2.296875 -10 L 7.171875 -10 C 7.296875 -10 7.425781 -10 7.5625 -10 C 7.707031 -10 7.847656 -10.003906 7.984375 -10.015625 C 8.117188 -10.023438 8.253906 -10.03125 8.390625 -10.03125 C 8.535156 -10.039062 8.679688 -10.050781 8.828125 -10.0625 Z M 8.828125 -10.0625 "/></g></g></g><g fill="#aa6644" fill-opacity="1"><g transform="translate(50.517083, 80.952669)"><g/></g></g><g fill="#aa6644" fill-opacity="1"><g transform="translate(57.623372, 80.952669)"><g><path d="M 0.828125 -10 L 4.953125 -10 C 6.742188 -10 8.140625 -9.566406 9.140625 -8.703125 C 10.148438 -7.847656 10.65625 -6.648438 10.65625 -5.109375 C 10.65625 -4.109375 10.421875 -3.222656 9.953125 -2.453125 C 9.492188 -1.679688 8.847656 -1.078125 8.015625 -0.640625 C 7.191406 -0.210938 6.238281 0 5.15625 0 L 0.828125 0 L 0.796875 -0.640625 L 1.84375 -0.890625 C 1.863281 -0.984375 1.878906 -1.269531 1.890625 -1.75 C 1.910156 -2.226562 1.921875 -2.773438 1.921875 -3.390625 L 1.921875 -6.59375 C 1.921875 -7.269531 1.910156 -7.84375 1.890625 -8.3125 C 1.878906 -8.78125 1.863281 -9.046875 1.84375 -9.109375 L 0.796875 -9.34375 Z M 3.40625 -9.078125 C 3.40625 -8.960938 3.398438 -8.816406 3.390625 -8.640625 C 3.390625 -8.460938 3.382812 -8.210938 3.375 -7.890625 C 3.375 -7.578125 3.375 -7.144531 3.375 -6.59375 L 3.375 -3.390625 C 3.375 -3.046875 3.375 -2.722656 3.375 -2.421875 C 3.382812 -2.117188 3.394531 -1.847656 3.40625 -1.609375 C 3.425781 -1.378906 3.441406 -1.179688 3.453125 -1.015625 C 3.816406 -0.972656 4.144531 -0.9375 4.4375 -0.90625 C 4.726562 -0.882812 5.007812 -0.875 5.28125 -0.875 C 6.476562 -0.875 7.390625 -1.191406 8.015625 -1.828125 C 8.640625 -2.472656 8.953125 -3.398438 8.953125 -4.609375 C 8.953125 -5.347656 8.859375 -6 8.671875 -6.5625 C 8.492188 -7.132812 8.226562 -7.613281 7.875 -8 C 7.519531 -8.394531 7.082031 -8.691406 6.5625 -8.890625 C 6.050781 -9.097656 5.453125 -9.203125 4.765625 -9.203125 C 4.566406 -9.203125 4.351562 -9.191406 4.125 -9.171875 C 3.894531 -9.148438 3.65625 -9.117188 3.40625 -9.078125 Z M 3.40625 -9.078125 "/></g></g></g><g fill="#aa6644" fill-opacity="1"><g transform="translate(73.072202, 80.952669)"><g><path d="M 5.9375 0.15625 C 4.957031 0.15625 4.082031 -0.0546875 3.3125 -0.484375 C 2.539062 -0.921875 1.941406 -1.523438 1.515625 -2.296875 C 1.085938 -3.066406 0.875 -3.953125 0.875 -4.953125 C 0.875 -5.953125 1.09375 -6.84375 1.53125 -7.625 C 1.96875 -8.40625 2.570312 -9.019531 3.34375 -9.46875 C 4.125 -9.925781 5.003906 -10.15625 5.984375 -10.15625 C 6.929688 -10.15625 7.769531 -9.9375 8.5 -9.5 C 9.226562 -9.070312 9.796875 -8.476562 10.203125 -7.71875 C 10.617188 -6.957031 10.828125 -6.078125 10.828125 -5.078125 C 10.828125 -4.316406 10.695312 -3.617188 10.4375 -2.984375 C 10.175781 -2.347656 9.816406 -1.789062 9.359375 -1.3125 C 8.910156 -0.84375 8.394531 -0.476562 7.8125 -0.21875 C 7.226562 0.03125 6.601562 0.15625 5.9375 0.15625 Z M 6.09375 -0.765625 C 6.71875 -0.765625 7.253906 -0.921875 7.703125 -1.234375 C 8.148438 -1.554688 8.492188 -2.007812 8.734375 -2.59375 C 8.984375 -3.175781 9.109375 -3.867188 9.109375 -4.671875 C 9.109375 -5.585938 8.96875 -6.390625 8.6875 -7.078125 C 8.40625 -7.773438 8.015625 -8.316406 7.515625 -8.703125 C 7.023438 -9.097656 6.441406 -9.296875 5.765625 -9.296875 C 4.804688 -9.296875 4.046875 -8.9375 3.484375 -8.21875 C 2.921875 -7.5 2.640625 -6.519531 2.640625 -5.28125 C 2.640625 -4.394531 2.785156 -3.613281 3.078125 -2.9375 C 3.378906 -2.257812 3.789062 -1.726562 4.3125 -1.34375 C 4.832031 -0.957031 5.425781 -0.765625 6.09375 -0.765625 Z M 6.09375 -0.765625 "/></g></g></g><g fill="#aa6644" fill-opacity="1"><g transform="translate(88.589134, 80.952669)"><g><path d="M 6.375 0.15625 C 5.351562 0.15625 4.421875 -0.03125 3.578125 -0.40625 C 2.742188 -0.789062 2.082031 -1.359375 1.59375 -2.109375 C 1.113281 -2.859375 0.875 -3.789062 0.875 -4.90625 C 0.875 -5.625 1 -6.296875 1.25 -6.921875 C 1.507812 -7.554688 1.878906 -8.113281 2.359375 -8.59375 C 2.835938 -9.082031 3.425781 -9.460938 4.125 -9.734375 C 4.820312 -10.015625 5.617188 -10.15625 6.515625 -10.15625 C 6.992188 -10.15625 7.5 -10.109375 8.03125 -10.015625 C 8.5625 -9.921875 9.019531 -9.789062 9.40625 -9.625 L 9.5 -7.390625 L 8.75 -7.328125 L 8.265625 -8.84375 C 8.046875 -9 7.753906 -9.109375 7.390625 -9.171875 C 7.023438 -9.242188 6.691406 -9.28125 6.390625 -9.28125 C 5.515625 -9.28125 4.800781 -9.09375 4.25 -8.71875 C 3.695312 -8.351562 3.289062 -7.863281 3.03125 -7.25 C 2.769531 -6.632812 2.640625 -5.960938 2.640625 -5.234375 C 2.640625 -4.265625 2.8125 -3.441406 3.15625 -2.765625 C 3.5 -2.085938 3.96875 -1.578125 4.5625 -1.234375 C 5.15625 -0.898438 5.820312 -0.734375 6.5625 -0.734375 C 6.875 -0.734375 7.222656 -0.773438 7.609375 -0.859375 C 8.003906 -0.953125 8.359375 -1.113281 8.671875 -1.34375 L 8.265625 -0.390625 L 8.265625 -2.1875 C 8.265625 -2.550781 8.253906 -2.875 8.234375 -3.15625 C 8.222656 -3.445312 8.207031 -3.664062 8.1875 -3.8125 L 7.03125 -4 L 7.0625 -4.6875 L 10.390625 -4.6875 L 10.421875 -4.03125 L 9.671875 -3.828125 C 9.671875 -3.773438 9.671875 -3.640625 9.671875 -3.421875 C 9.671875 -3.203125 9.671875 -2.941406 9.671875 -2.640625 C 9.671875 -2.242188 9.675781 -1.90625 9.6875 -1.625 C 9.695312 -1.351562 9.707031 -1.070312 9.71875 -0.78125 C 9.28125 -0.488281 8.75 -0.257812 8.125 -0.09375 C 7.507812 0.0703125 6.925781 0.15625 6.375 0.15625 Z M 6.375 0.15625 "/></g></g></g></svg>